<mxfile host="app.diagrams.net" modified="2022-10-06T14:14:58.849Z" agent="5.0 (Macintosh; Intel Mac OS X 10_15_7) AppleWebKit/537.36 (KHTML, like Gecko) Chrome/105.0.0.0 Safari/537.36" etag="K1wFAOuAjhebHcs50qy0" version="20.4.0" type="github">
  <diagram id="PeX5fFQuTDtqNtm7up72" name="be workflow">
    <mxGraphModel dx="1426" dy="770" grid="0" gridSize="10" guides="1" tooltips="1" connect="1" arrows="1" fold="1" page="1" pageScale="1" pageWidth="3300" pageHeight="4681" math="0" shadow="0">
      <root>
        <mxCell id="0" />
        <mxCell id="1" parent="0" />
        <mxCell id="bLBO3SAoGhUCr67wh768-1" value="&lt;font style=&quot;font-size: 14px;&quot;&gt;FragmentMgr::exec_plan_fragment&lt;/font&gt;" style="rounded=0;whiteSpace=wrap;html=1;" vertex="1" parent="1">
          <mxGeometry x="136" y="143" width="264" height="38" as="geometry" />
        </mxCell>
      </root>
    </mxGraphModel>
  </diagram>
</mxfile>
